Coordinates
version=1
nRows=11
nColumns=40
inDegrees=yes

Units are S.I. units (second, meters, Newtons, ...)
Angles are in degrees.

endheader
time	pelvis_tilt	pelvis_list	pelvis_rotation	pelvis_tx	pelvis_ty	pelvis_tz	hip_flexion_r	hip_adduction_r	hip_rotation_r	knee_angle_r	knee_angle_r_beta	ankle_angle_r	subtalar_angle_r	mtp_angle_r	hip_flexion_l	hip_adduction_l	hip_rotation_l	knee_angle_l	knee_angle_l_beta	ankle_angle_l	subtalar_angle_l	mtp_angle_l	lumbar_extension	lumbar_bending	lumbar_rotation	arm_flex_r	arm_add_r	arm_rot_r	elbow_flex_r	pro_sup_r	wrist_flex_r	wrist_dev_r	arm_flex_l	arm_add_l	arm_rot_l	elbow_flex_l	pro_sup_l	wrist_flex_l	wrist_dev_l
      1.08000000	     -3.46227028	      2.79499411	      8.15902061	      0.27636639	      0.93947453	      1.00376701	     28.87745488	    -11.02959354	    -23.22653855	    -12.36557232	     -0.21581995	      1.59021924	      4.86890265	      0.14350232	     -6.95811926	     -2.38372710	      8.72827206	    -11.43908034	     -0.19964962	      6.14895846	     -5.31132459	    -17.26366813	     -2.16951985	     -2.42646785	    -11.17590721	     -5.86720207	     -9.94427035	    -19.81286043	     16.48136852	     89.95437384	      0.00000000	      0.00000000	     22.71243270	     15.96513633	     -5.84669011	     47.50629497	     89.95437384	      0.00000000	      0.00000000
      1.09000000	     -3.40778631	      2.80503052	      8.43259229	      0.28699623	      0.93824926	      1.00480490	     28.83542152	    -11.08531995	    -23.27827621	    -12.45219901	     -0.21733187	      1.47182064	      4.80693713	      0.07323600	     -7.52809947	     -2.10612914	      8.46731106	    -11.80944796	     -0.20611375	      6.31814016	     -5.54511627	    -17.15352674	     -2.13200883	     -2.38845045	    -11.44299076	     -6.15832866	    -10.01835244	    -19.85720868	     16.28594526	     89.95437384	      0.00000000	      0.00000000	     22.59656780	     16.03243049	     -5.54949084	     47.92917115	     89.95437384	      0.00000000	      0.00000000
      1.10000000	     -3.52966179	      2.87865182	      8.58624969	      0.29776570	      0.93672313	      1.00619378	     29.02388262	    -11.15428607	    -22.95146109	    -12.88291458	     -0.22484928	      1.35408352	      4.60401522	      0.07333444	     -7.82246520	     -1.91587253	      8.36227934	    -12.35954570	     -0.21571477	      6.18948780	     -5.37265213	    -16.82175813	     -1.87696010	     -2.47946814	    -11.46940224	     -6.66307089	    -10.04464076	    -19.81200252	     16.40277086	     89.95437384	      0.00000000	      0.00000000	     22.47655512	     16.04442245	     -5.41485988	     48.13665913	     89.95437384	      0.00000000	      0.00000000
      1.11000000	     -2.97231396	      2.64244303	      9.11373053	      0.30932824	      0.93632842	      1.00705730	     28.22994004	    -11.04743322	    -23.65232168	    -13.55863459	     -0.23664282	      1.64170765	      3.52809478	     -0.04941185	     -8.95907338	     -1.20410249	      8.03513556	    -12.67669006	     -0.22124998	      6.27931070	     -5.79927340	    -16.83241826	     -2.30560032	     -2.08566136	    -12.05860139	     -6.65462999	    -10.10365508	    -20.34332936	     15.85995570	     89.95437384	      0.00000000	      0.00000000	     22.04331442	     15.98490843	     -4.68076886	     48.64197984	     89.95437384	      0.00000000	      0.00000000
      1.12000000	     -3.08431095	      2.71217496	      9.26675888	      0.32082629	      0.93488574	      1.00870869	     28.17888118	    -11.08566541	    -23.17472741	    -14.19865312	     -0.24781325	      1.49713653	      3.29769122	     -0.04568640	     -9.26398027	     -0.97456814	      7.88301657	    -13.31580607	     -0.23240466	      6.12213299	     -5.60332486	    -16.47076618	     -1.96218648	     -2.19315386	    -12.06808679	     -7.20607123	    -10.11218181	    -20.28749451	     15.99704395	     89.95437384	      0.00000000	      0.00000000	     21.66716525	     15.97168062	     -4.56676503	     48.73813106	     89.95437384	      0.00000000	      0.00000000
      1.13000000	     -2.54997824	      2.52754409	      9.60540884	      0.33261614	      0.93437154	      1.01018554	     27.57550884	    -10.98135688	    -23.36070863	    -15.71275235	     -0.27423926	      1.80204327	      1.90926783	     -0.13184573	    -10.36126948	     -0.31292548	      7.63324213	    -13.68072564	     -0.23877371	      6.39654015	     -5.71736659	    -16.34712151	     -2.33182246	     -1.88381543	    -12.43121968	     -7.22229292	    -10.22905261	    -20.39943528	     15.51389426	     89.95437384	      0.00000000	      0.00000000	     21.17977008	     15.92657045	     -3.93864556	     48.94535925	     89.95437384	      0.00000000	      0.00000000
      1.14000000	     -1.69557817	      1.95558053	      9.92940049	      0.34527815	      0.93456155	      1.01225979	     25.96052658	    -10.00715575	    -23.35689575	    -15.78206774	     -0.27544904	      0.82584614	     -0.56278083	      0.08059682	    -11.66567222	      1.04351939	      8.29880793	    -14.16515112	     -0.24722853	      5.60269925	     -7.10011860	    -16.79435231	     -2.92559151	     -1.11649800	    -12.64297705	     -7.36307752	    -10.21711804	    -21.34145216	     15.24526140	     89.95437384	      0.00000000	      0.00000000	     20.53325012	     15.76727056	     -3.43438797	     49.12608314	     89.95437384	      0.00000000	      0.00000000
      1.15000000	     -1.13895023	      1.64292608	     10.08469745	      0.35749958	      0.93432567	      1.01441804	     25.19337005	     -9.62308837	    -24.29212151	    -16.64364007	     -0.29048632	     -1.32490782	     -2.34545316	      0.53360809	    -12.68485144	      1.88639165	      8.27023630	    -14.70071086	     -0.25657581	      5.19301582	     -7.16526054	    -16.76327951	     -3.24855538	     -0.67297842	    -12.73718119	     -7.51394992	    -10.28082791	    -21.50101363	     15.04746388	     89.95437384	      0.00000000	      0.00000000	     19.90676755	     15.63164170	     -2.90774852	     49.15799167	     89.95437384	      0.00000000	      0.00000000
      1.16000000	     -0.59247069	      1.17849846	     10.14983198	      0.36948044	      0.93442418	      1.01683037	     24.38697133	     -8.97338924	    -24.49828819	    -16.98623562	     -0.29646574	     -3.41469936	     -4.06538528	      0.76977242	    -13.53261894	      2.91297541	      8.47981103	    -15.43561925	     -0.26940238	      4.67980157	     -7.31485860	    -16.77985037	     -3.54129854	     -0.05628470	    -12.67900189	     -7.58047128	    -10.36947126	    -21.75829973	     14.78117264	     89.95437384	      0.00000000	      0.00000000	     19.28945220	     15.34450994	     -2.26292988	     48.93058995	     89.95437384	      0.00000000	      0.00000000
      1.17000000	     -0.23051525	      0.68577880	     10.05593664	      0.38146512	      0.93439415	      1.01964424	     24.02149867	     -8.41160632	    -24.37793884	    -17.84147015	     -0.31139240	     -4.71883108	     -4.46874372	      0.47232708	    -14.08591340	      3.93401821	      8.88681412	    -16.34839300	     -0.28533329	      4.03885516	     -7.56595509	    -16.76394124	     -3.64212732	      0.53372554	    -12.43465869	     -7.57086128	    -10.40012940	    -22.41966795	     14.43723562	     89.95437384	      0.00000000	      0.00000000	     18.63913030	     15.02717981	     -1.66149481	     48.53561201	     89.95437384	      0.00000000	      0.00000000
      1.18000000	     -0.10256427	      0.46358335	      9.83648636	      0.39339578	      0.93428870	      1.02243146	     24.11145812	     -8.24865782	    -24.05714754	    -19.31733863	     -0.33715116	     -5.92603201	     -4.21535985	      0.54976512	    -14.37316347	      4.48774911	      8.97852481	    -17.38461108	     -0.30341870	      3.47738902	     -6.99229052	    -16.27077143	     -3.49669907	      0.77667573	    -12.10235729	     -7.62900159	    -10.48462831	    -22.33257547	     14.13506689	     89.95437384	      0.00000000	      0.00000000	     17.86389244	     14.71451657	     -1.04593725	     48.04723661	     89.95437384	      0.00000000	      0.00000000
